<svg id="Layer_1" data-name="Layer 1" xmlns="http://www.w3.org/2000/svg" viewBox="0 0 400.05 91.77"><defs><style>.cls-1{font-size:66px;fill:#222;font-family:CantoraOne-Regular, CantoraOne;}.cls-2{letter-spacing:0em;}.cls-3{letter-spacing:-0.02em;}.cls-4{letter-spacing:-0.02em;}.cls-5{font-size:24px;font-family:RobotoMono-Regular, Roboto Mono;letter-spacing:0.04em;}</style></defs><title>Artboard 1</title><text class="cls-1" transform="translate(0 56.1)">Cha<tspan class="cls-2" x="106.79" y="0">z</tspan><tspan x="134.77" y="0">on</tspan><tspan class="cls-3" x="205.13" y="0">a</tspan><tspan class="cls-4" x="235.82" y="0">’</tspan><tspan x="249.02" y="0">s</tspan></text><text class="cls-5" transform="translate(0 85.27)">#100DaysOfCode Log</text><path d="M323,70.11,320,73.17a1.93,1.93,0,0,1-2.82,0L288.61,44.64a1.93,1.93,0,0,1,0-2.82l28.53-28.53a1.93,1.93,0,0,1,2.82,0L323,16.35a1.93,1.93,0,0,1,0,2.82L299,43.23,323,67.29a1.93,1.93,0,0,1,0,2.82ZM359.21,4.78l-22.84,79a2,2,0,0,1-.95,1.19,1.71,1.71,0,0,1-1.44.15l-3.8-1a2,2,0,0,1-1.19-.95,1.83,1.83,0,0,1-.15-1.5l22.84-79a2,2,0,0,1,.95-1.19,1.71,1.71,0,0,1,1.44-.15l3.8,1a2,2,0,0,1,1.19.95A1.83,1.83,0,0,1,359.21,4.78Zm40.23,39.86L370.91,73.17a1.93,1.93,0,0,1-2.82,0L365,70.11a1.93,1.93,0,0,1,0-2.82l24.06-24.06L365,19.17a1.93,1.93,0,0,1,0-2.82l3.06-3.06a1.93,1.93,0,0,1,2.82,0l28.53,28.53a1.93,1.93,0,0,1,0,2.82Z"/></svg>